<?xml version="1.0" encoding="utf-8"?>
<!-- Generator: Adobe Illustrator 16.0.4, SVG Export Plug-In . SVG Version: 6.00 Build 0)  -->
<!DOCTYPE svg PUBLIC "-//W3C//DTD SVG 1.1//EN" "http://www.w3.org/Graphics/SVG/1.1/DTD/svg11.dtd">
<svg version="1.1" id="Layer_1" xmlns="http://www.w3.org/2000/svg" xmlns:xlink="http://www.w3.org/1999/xlink" x="0px" y="0px"
	 width="16px" height="16px" viewBox="0 0 16 16" enable-background="new 0 0 16 16" xml:space="preserve">
<path d="M3.135,0C1.411,0,0,1.411,0,3.135v9.73C0,14.589,1.411,16,3.135,16h9.73C14.589,16,16,14.589,16,12.865v-9.73
	C16,1.411,14.589,0,12.865,0H3.135z M3.924,2.64c0.827,0,1.336,0.543,1.352,1.256c0,0.698-0.525,1.256-1.368,1.256H3.893
	c-0.811,0-1.335-0.558-1.335-1.256C2.557,3.183,3.097,2.64,3.924,2.64L3.924,2.64z M11.048,5.975c1.59,0,2.782,1.04,2.782,3.272
	v4.169h-2.416V9.527c0-0.978-0.35-1.645-1.224-1.645c-0.667,0-1.065,0.45-1.24,0.884C8.886,8.921,8.87,9.138,8.87,9.355v4.061H6.454
	c0,0,0.032-6.588,0-7.271h2.417v1.03C9.192,6.68,9.766,5.975,11.048,5.975L11.048,5.975z M2.7,6.146h2.417v7.27H2.7V6.146L2.7,6.146
	z"/>
</svg>
